<?xml version="1.0" standalone="no"?>
<!DOCTYPE svg PUBLIC "-//W3C//DTD SVG 20010904//EN"
 "http://www.w3.org/TR/2001/REC-SVG-20010904/DTD/svg10.dtd">
<svg version="1.0" xmlns="http://www.w3.org/2000/svg"
 width="5390.000000pt" height="5390.000000pt" viewBox="0 0 5390.000000 5390.000000"
 preserveAspectRatio="xMidYMid meet">
<metadata>
Created by potrace 1.14, written by Peter Selinger 2001-2017
</metadata>
<g transform="translate(0.000000,5390.000000) scale(0.100000,-0.100000)"
fill="#000000" stroke="none">
<path d="M26370 53769 c-465 -65 -852 -122 -860 -127 -8 -5 -16 -16 -18 -25
-2 -9 117 -194 263 -412 l267 -396 46 34 c26 19 324 231 662 472 338 241 621
445 628 453 17 22 15 73 -4 100 -13 19 -24 22 -77 21 -34 -1 -442 -55 -907
-120z"/>
<path d="M27761 53648 c-252 -174 -1500 -1054 -1500 -1058 -1 -6 1940 -922
1944 -918 1 2 -31 436 -71 966 -80 1057 -72 1002 -144 1049 -24 17 -48 23 -86
23 -48 0 -60 -5 -143 -62z"/>
<path d="M25186 53343 c-129 -257 -677 -1439 -674 -1456 8 -54 43 -35 651 362
323 211 587 388 587 392 0 12 -480 732 -494 741 -26 18 -46 6 -70 -39z"/>
<path d="M28446 53309 c-22 -17 -26 -28 -26 -72 1 -84 107 -1598 113 -1604 3
-3 216 15 473 41 499 48 509 50 487 98 -28 61 -927 1516 -949 1536 -31 28 -64
28 -98 1z"/>
<path d="M25082 51871 c-436 -258 -800 -475 -808 -482 -27 -22 -35 -57 -21
-89 10 -25 164 -122 901 -570 488 -298 889 -540 891 -538 3 3 -162 2108 -167
2133 -2 12 -198 -100 -796 -454z"/>
<path d="M26203 52222 c3 -26 38 -465 77 -977 39 -511 75 -938 78 -948 6 -15
134 70 819 550 447 312 813 570 812 573 0 3 -210 104 -467 225 -257 120 -660
310 -896 422 l-429 202 6 -47z"/>
<path d="M28975 51356 l-410 -41 3 -35 c14 -187 155 -1386 163 -1396 14 -17
43 -18 57 -1 5 6 164 338 351 736 231 490 341 733 339 750 -3 23 -7 26 -48 27
-25 1 -229 -17 -455 -40z"/>
<path d="M27380 50607 c-481 -337 -877 -617 -880 -622 -7 -13 1916 -684 1963
-684 45 -1 77 27 77 68 0 24 -276 1821 -283 1843 -1 4 -396 -268 -877 -605z"/>
<path d="M24212 50908 c-7 -7 -12 -19 -12 -28 0 -13 1295 -1546 1381 -1634 11
-13 32 -20 54 -20 22 0 43 7 54 20 10 10 81 151 157 312 117 250 135 295 123
306 -27 25 -1718 1056 -1731 1056 -8 0 -19 -5 -26 -12z"/>
<path d="M26252 49683 c-11 -21 -74 -154 -141 -297 -133 -282 -141 -311 -91
-347 23 -16 98 -19 965 -33 1217 -21 1212 -21 1220 3 3 10 3 25 0 33 -4 10
-351 134 -958 343 -524 181 -957 330 -964 332 -6 3 -20 -13 -31 -34z"/>
<path d="M25051 48669 c-28 -47 -31 -62 -28 -111 2 -44 10 -64 33 -93 16 -21
35 -45 42 -55 22 -30 40 -162 52 -384 11 -203 8 -292 -11 -345 -6 -14 -38 -53
-73 -86 -76 -74 -110 -142 -126 -252 -24 -177 27 -388 156 -644 112 -223 131
-373 169 -1339 25 -637 38 -820 56 -820 5 0 8 -125 7 -297 l-3 -297 -155 -23
c-462 -68 -983 -198 -1421 -354 -935 -333 -1745 -835 -2428 -1504 -504 -494
-906 -1025 -1255 -1660 -79 -143 -229 -447 -281 -567 -26 -61 -31 -66 -54 -62
-71 11 -1026 127 -1231 149 -477 50 -638 59 -1025 59 -400 1 -497 -7 -734 -60
-430 -96 -690 -280 -951 -671 -205 -308 -336 -638 -411 -1033 -31 -165 -38
-483 -14 -635 42 -272 127 -453 292 -626 273 -286 700 -507 1110 -574 198 -33
441 -28 602 11 281 69 532 324 605 614 27 108 40 298 27 399 -30 239 -124 454
-212 489 -22 8 -39 19 -39 24 0 28 243 94 469 128 186 28 813 80 967 80 l41 0
-29 -137 c-196 -925 -272 -2119 -193 -3043 130 -1524 627 -2887 1495 -4104
438 -614 1015 -1230 1625 -1736 83 -69 780 -627 1549 -1240 l1398 -1115 -6
-970 c-3 -533 -11 -1620 -18 -2415 -18 -2291 -16 -5764 4 -7365 10 -748 20
-2039 23 -2870 3 -830 8 -1613 11 -1738 l7 -229 -79 7 c-485 39 -794 84 -1180
170 -1219 273 -2350 851 -3319 1696 -170 148 -570 548 -719 719 -1221 1400
-1974 3155 -2195 5115 -42 373 -53 555 -58 1027 -7 609 11 952 78 1487 168
1353 561 2628 1212 3938 l116 233 -161 150 c-88 83 -164 148 -168 145 -12 -8
-237 -367 -357 -570 -670 -1133 -1168 -2394 -1452 -3670 -393 -1771 -380
-3603 39 -5292 331 -1336 916 -2575 1713 -3623 503 -662 1102 -1257 1765
-1752 1345 -1006 2988 -1625 4784 -1804 66 -6 68 -7 72 -38 3 -17 17 -148 31
-291 96 -953 288 -1989 656 -3536 50 -211 247 -1012 439 -1779 389 -1560 497
-2002 641 -2623 125 -542 194 -813 214 -844 48 -73 92 -16 145 191 42 160 61
260 150 788 91 537 266 1514 406 2277 496 2696 711 4032 854 5321 20 188 70
702 70 731 0 13 34 25 158 54 1972 469 3753 1514 5122 3005 1573 1714 2562
3957 2799 6350 41 409 46 533 46 1105 0 553 -4 663 -41 1055 -103 1109 -388
2240 -823 3268 -653 1541 -1664 2940 -2954 4089 -221 196 -476 407 -808 665
-167 131 -968 756 -1779 1391 l-1475 1154 -3 289 c-4 404 16 1358 32 1545 24
261 55 326 423 887 84 128 153 240 153 248 0 9 -52 220 -114 469 -177 698
-260 1090 -340 1596 -53 333 -106 740 -112 859 -7 133 5 161 86 204 30 16 125
71 211 122 152 91 160 94 265 114 233 44 528 132 849 252 336 126 443 159 602
182 56 8 130 25 165 37 62 21 71 21 493 16 343 -5 1064 -25 1072 -31 1 0 11
-62 22 -136 32 -209 51 -428 57 -630 3 -102 7 -195 10 -207 4 -23 6 -23 177
-23 l173 0 34 485 34 485 75 0 c166 0 1356 -64 1491 -81 319 -38 706 -111 928
-175 31 -9 28 -20 -17 -48 -21 -14 -52 -42 -70 -63 -93 -113 -173 -451 -157
-662 20 -244 122 -479 267 -617 246 -231 800 -279 1304 -112 137 45 356 155
495 248 164 110 365 308 462 455 164 249 235 464 245 750 9 262 -17 389 -155
745 -141 363 -222 523 -342 674 -76 95 -151 155 -265 211 -486 239 -1255 260
-2850 79 -121 -13 -305 -29 -410 -34 -206 -11 -905 -14 -905 -4 0 6 32 457
150 2124 39 547 83 1187 98 1423 l27 427 -1093 0 -1093 0 -307 44 c-549 80
-1185 156 -1876 226 -219 22 -415 40 -436 40 -22 0 -41 4 -44 9 -16 26 18
1059 44 1336 25 261 33 334 66 580 19 143 43 325 54 405 23 180 57 290 162
520 135 295 185 478 175 639 -7 110 -48 197 -121 252 -86 65 -91 80 -91 264 1
261 31 403 111 508 24 32 46 75 50 95 8 44 -8 112 -42 170 l-25 42 -582 0
c-320 0 -1253 3 -2073 7 l-1492 6 -31 -54z m3949 -6569 c556 -102 1139 -313
1616 -585 156 -89 426 -274 574 -392 164 -131 446 -405 584 -568 232 -273 418
-550 561 -835 l55 -110 -162 5 c-90 3 -314 10 -498 16 -184 5 -364 15 -400 20
-39 6 -375 12 -840 14 -947 4 -1233 20 -1414 75 -117 36 -143 79 -132 209 4
42 13 103 21 136 24 97 19 175 -15 275 -32 94 -82 315 -99 442 -15 106 -2 162
55 237 83 111 111 211 101 369 -7 116 -32 217 -86 351 -37 92 -61 192 -76 319
-6 51 -5 52 17 48 13 -3 75 -15 138 -26z m-3893 -662 c-1 -96 16 -149 88 -268
55 -93 69 -156 62 -280 -13 -205 -67 -410 -134 -507 -33 -49 -38 -62 -37 -112
0 -31 11 -90 24 -131 27 -90 38 -240 21 -293 -37 -113 -148 -127 -1013 -134
-420 -4 -608 -2 -608 5 0 20 165 336 239 457 303 499 742 947 1246 1274 61 39
111 71 111 71 1 0 1 -37 1 -82z m-1603 -3548 c713 -79 1080 -159 1364 -297
133 -64 187 -110 198 -168 28 -149 -200 -1348 -407 -2140 -39 -148 -72 -272
-74 -274 -14 -13 -330 304 -514 515 -567 648 -865 1299 -931 2034 -11 128 -14
370 -3 370 3 0 168 -18 367 -40z m5711 -14480 c192 -175 573 -564 729 -742
650 -746 1129 -1517 1491 -2403 226 -554 400 -1221 480 -1840 65 -508 72
-1128 19 -1620 -204 -1894 -1147 -3519 -2639 -4547 -131 -90 -407 -260 -413
-253 -2 2 1 253 7 557 6 304 15 850 21 1213 6 363 15 937 20 1275 31 1920 43
2745 70 5015 5 457 15 1183 21 1615 7 432 9 1036 6 1343 l-6 558 27 -21 c15
-12 90 -79 167 -150z"/>
</g>
</svg>
